<?xml version="1.0" standalone="no"?>
<!DOCTYPE svg PUBLIC "-//W3C//DTD SVG 20010904//EN"
 "http://www.w3.org/TR/2001/REC-SVG-20010904/DTD/svg10.dtd">
<svg version="1.0" xmlns="http://www.w3.org/2000/svg"
 width="2481.000000pt" height="3508.000000pt" viewBox="0 0 2481.000000 3508.000000"
 preserveAspectRatio="xMidYMid meet">

<g transform="translate(0.000000,3508.000000) scale(0.100000,-0.100000)"
fill="#000000" stroke="none">
<path d="M16295 26200 c-82 -26 -597 -184 -1142 -351 l-993 -304 -2 -2945 -3
-2945 -160 -97 -160 -97 -3 2532 -2 2532 -343 215 c-253 159 -350 215 -372
215 -16 -1 -214 -58 -440 -127 -460 -142 -1575 -484 -1732 -531 l-103 -31 0
-2928 0 -2928 23 5 c12 2 81 14 152 25 72 11 138 23 148 26 9 3 17 0 17 -6 0
-6 83 -145 183 -308 101 -164 189 -307 196 -319 11 -21 7 -24 -158 -77 -297
-97 -621 -179 -906 -231 -77 -14 -150 -27 -161 -30 -19 -4 -51 43 -268 395
-135 219 -246 403 -246 408 0 5 58 12 129 15 128 7 515 44 539 52 9 4 12 487
12 2372 l0 2368 -133 67 c-72 37 -229 118 -347 180 l-216 113 -949 -241 c-523
-133 -1038 -264 -1145 -291 l-195 -50 -3 -1124 -2 -1125 -58 -23 c-135 -55
-376 -194 -511 -295 -318 -239 -541 -522 -665 -843 -172 -445 -151 -964 60
-1510 88 -230 189 -393 344 -556 448 -475 1191 -764 2205 -859 182 -17 805
-17 980 0 940 92 1762 297 2584 647 769 327 1462 720 2069 1175 133 100 161
125 150 135 -7 7 -185 124 -396 260 -211 136 -380 251 -375 255 4 4 67 49 138
100 554 398 1023 778 1499 1212 l158 145 288 -186 c158 -102 285 -190 282
-196 -31 -59 168 213 310 425 516 770 925 1677 1107 2453 49 208 49 215 0 122
-90 -172 -228 -378 -418 -629 l-106 -139 -3 1800 -2 1800 -278 126 c-152 69
-311 141 -352 159 l-75 34 -150 -46z m-8787 -7219 l-3 -251 -70 47 c-92 61
-196 147 -269 222 l-59 60 2 61 c8 221 130 423 341 564 l55 36 3 -244 c1 -135
1 -357 0 -495z"/>
<path d="M16229 20053 c-13 -16 -12 -17 4 -4 16 13 21 21 13 21 -2 0 -10 -8
-17 -17z"/>
<path d="M13577 16949 c-300 -73 -545 -307 -659 -629 -56 -159 -52 50 -57
-2850 l-6 -2665 -23 -107 c-60 -285 -159 -482 -330 -660 -141 -146 -305 -243
-500 -295 -85 -23 -117 -26 -262 -27 -138 0 -179 3 -253 22 -411 103 -681 411
-778 888 -23 116 -27 232 -33 1021 l-4 541 67 -45 c201 -135 421 -184 621
-138 467 109 743 579 699 1193 -29 415 -179 690 -444 817 -114 55 -206 75
-337 75 -210 0 -380 -67 -604 -237 l-32 -24 -12 106 -13 105 -159 0 -159 0 4
-1662 c4 -1822 1 -1743 63 -1998 140 -570 506 -920 1070 -1021 157 -29 453
-32 590 -6 451 83 809 365 1019 802 79 164 132 337 172 565 15 87 17 328 22
2740 6 2537 7 2647 24 2700 56 166 167 306 295 373 90 47 141 59 247 59 286
-2 442 -174 496 -547 10 -70 14 -493 18 -1895 l6 -1805 27 -73 c62 -171 171
-277 338 -326 87 -26 315 -40 458 -28 68 5 125 12 128 15 3 2 -19 70 -49 151
l-53 147 -149 3 c-83 2 -167 8 -187 15 -50 16 -94 54 -121 105 l-22 41 -5
1855 c-6 2037 -3 1930 -66 2148 -112 387 -386 574 -838 571 -93 0 -153 -6
-209 -20z m-2191 -3218 c120 -56 192 -143 243 -296 40 -122 55 -256 48 -424
-7 -168 -32 -274 -93 -399 -149 -307 -461 -389 -774 -203 -38 23 -82 53 -99
67 l-31 26 0 509 0 508 63 52 c96 81 194 140 282 171 73 26 90 29 186 25 93
-3 113 -7 175 -36z"/>
<path d="M5900 13500 l0 -1460 190 0 190 0 0 719 0 719 78 72 c175 162 292
215 460 208 84 -3 104 -8 152 -33 100 -55 151 -156 170 -339 5 -50 10 -373 10
-718 l0 -628 185 0 185 0 0 683 c0 407 -4 717 -10 767 -33 269 -133 446 -300
534 -89 47 -177 66 -311 66 -129 0 -224 -22 -336 -78 -74 -38 -233 -147 -247
-171 -4 -6 -15 -15 -26 -21 -18 -9 -18 8 -13 565 l6 575 -191 0 -192 0 0
-1460z"/>
<path d="M18900 13410 l0 -1460 180 0 180 0 0 260 0 260 171 200 c95 110 175
200 178 200 3 0 131 -206 283 -458 l276 -457 206 -3 c113 -1 206 0 206 2 0 2
-169 270 -375 596 l-375 592 333 399 c182 220 334 404 335 409 2 6 -71 10
-205 10 l-208 -1 -410 -506 -410 -507 -3 962 -2 962 -180 0 -180 0 0 -1460z"/>
<path d="M15777 14776 c-101 -37 -151 -111 -152 -221 0 -58 4 -78 27 -116 76
-129 269 -158 390 -59 50 42 78 103 78 173 0 96 -42 167 -125 209 -51 27 -165
34 -218 14z"/>
<path d="M4340 14760 c-297 -63 -516 -242 -601 -490 -30 -89 -38 -276 -15
-375 30 -125 79 -209 186 -315 118 -118 172 -149 540 -311 460 -203 528 -246
586 -371 26 -56 29 -74 29 -158 -1 -123 -26 -189 -99 -264 -98 -101 -234 -147
-431 -147 -245 0 -473 92 -668 272 -67 60 -69 62 -86 43 -85 -90 -207 -241
-204 -251 6 -17 155 -141 228 -190 127 -85 288 -153 450 -189 110 -24 370 -30
485 -10 212 37 367 113 500 246 148 147 210 301 210 520 0 249 -87 427 -277
568 -100 74 -166 107 -512 256 -173 75 -340 152 -372 171 -84 52 -161 139
-183 210 -26 80 -18 182 18 253 72 141 226 215 446 215 204 -1 382 -69 548
-211 29 -25 56 -41 61 -36 76 89 191 234 191 241 0 12 -92 91 -171 147 -131
91 -302 160 -462 186 -99 16 -301 11 -397 -10z"/>
<path d="M8710 14076 c-415 -96 -683 -411 -739 -871 -69 -565 197 -1039 664
-1181 82 -25 105 -28 255 -28 143 -1 176 2 245 22 348 100 588 376 667 767 28
142 28 372 -1 513 -81 392 -316 663 -661 763 -93 27 -343 36 -430 15z m260
-307 c212 -34 375 -209 442 -474 20 -78 23 -114 22 -265 -1 -146 -4 -188 -23
-255 -60 -222 -188 -382 -351 -440 -181 -64 -380 -18 -514 118 -92 94 -156
229 -186 397 -16 90 -13 301 5 400 33 171 117 330 218 413 79 65 197 110 302
116 11 0 49 -4 85 -10z"/>
<path d="M17540 13994 c-146 -28 -320 -123 -462 -253 l-56 -51 -5 33 c-3 17
-9 68 -12 112 -10 139 8 125 -170 125 l-155 0 0 -1005 0 -1005 185 0 185 0 0
714 0 713 83 79 c96 93 152 133 245 177 64 31 72 32 192 32 109 0 130 -3 165
-22 55 -29 110 -89 135 -146 47 -107 50 -154 50 -873 l0 -674 190 0 190 0 0
638 c0 644 -7 815 -36 943 -42 185 -129 319 -257 393 -92 54 -152 68 -302 71
-77 2 -151 1 -165 -1z"/>
<path d="M15687 13954 c-4 -4 -7 -457 -7 -1006 l0 -998 190 0 190 0 -2 1003
-3 1002 -181 3 c-99 1 -183 -1 -187 -4z"/>
</g>
</svg>
